<svg width="56" height="41" viewBox="0 0 56 41" fill="none" xmlns="http://www.w3.org/2000/svg">
<path fill-rule="evenodd" clip-rule="evenodd" d="M35.7671 27.2244H28.6545H28.6544H20.2328L14.8422 36.2089C13.3118 38.7595 10.4911 40.2489 7.52168 40.0742C2.92638 39.8039 -0.490605 35.7166 0.0578491 31.1461L2.42265 11.4395C2.92271 7.27224 5.32124 3.57029 8.92025 1.41089C12.201 -0.557571 16.3223 -0.4595 19.5057 1.66278L22.506 3.66294H28.6544H28.6545H33.494L36.4942 1.66278C39.6777 -0.4595 43.799 -0.557571 47.0797 1.41089C50.6787 3.57029 53.0773 7.27224 53.5773 11.4395L55.9421 31.1461C56.4906 35.7166 53.0736 39.8039 48.4783 40.0742C45.5089 40.2489 42.6882 38.7595 41.1578 36.2089L35.7671 27.2244Z" fill="white"/>
</svg>
