<svg width="229" height="142" viewBox="0 0 229 142" fill="none" xmlns="http://www.w3.org/2000/svg">
<path d="M120.806 0.5L122.061 0.513672C134.916 0.786853 144.109 5.26818 149.599 12.2666C155.261 19.4846 156.918 29.2955 154.695 39.7041L141.496 102.503L141.495 102.506C140.202 108.473 140.279 113.09 141.709 116.19C142.419 117.728 143.464 118.895 144.853 119.684C146.247 120.474 148.019 120.9 150.206 120.9H227.825L227.695 121.505L223.495 141.104L223.411 141.5H138.006C124.523 141.5 114.752 137.726 108.998 130.871C103.24 124.013 101.598 114.186 104.117 102.296L117.317 39.4971V39.4961L117.489 38.627C118.277 34.2892 118.026 30.0771 116.363 26.9072C114.611 23.5704 111.248 21.2998 105.606 21.2998H27.9829L28.1177 20.6914L32.5181 0.891602L32.605 0.5H120.806Z" fill="black" stroke="black"/>
<path d="M27.3589 21.7998H65.729C57.0167 23.6406 51.4855 31.5547 49.7828 39.2168L36.3843 102.407V102.408C35.1022 108.424 35.4114 112.959 37.2359 115.955C39.0138 118.874 42.4074 120.6 48.0064 120.6H103.38C104.348 124.627 106.089 128.185 108.615 131.193C114.499 138.202 124.44 142 138.006 142H33.0064C19.4465 142 10.1176 138.254 4.9019 131.194C-0.296429 124.158 -1.19714 114.11 1.42925 101.988L14.8277 38.793L14.8287 38.7891L15.0474 37.8174C17.3159 28.1329 22.14 19.1104 29.4683 12.3076L27.3589 21.7998ZM145.604 120.6C146.799 121.085 148.192 121.355 149.789 121.395L150.206 121.4H202.468L202.385 121.802L198.427 141H197.407L201.407 121.6H201.406L197.406 141H138.006L136.761 140.989C118.479 140.665 107.541 133.153 104.411 120.6H145.604ZM35.4058 102.2C35.3916 102.267 35.3786 102.334 35.3648 102.4L35.4068 102.2L48.8062 39L35.4058 102.2ZM120.806 1L122.05 1.0127C139.665 1.38678 150.195 9.72449 153.767 21.4004H110.22C108.873 21.0114 107.341 20.7998 105.606 20.7998H28.606L30.7466 11.1631C36.4548 6.25737 43.5694 2.65046 52.0709 1H120.806ZM228.184 1.21191L223.984 20.6113L223.813 21.4004H154.813C153.796 17.95 152.194 14.764 149.993 11.958C144.39 4.81517 135.04 0.289517 122.072 0.0136719L120.806 0H228.446L228.184 1.21191ZM69.065 20.4072C68.7122 20.4164 68.3635 20.4342 68.0191 20.4609L68.5396 20.4277C68.714 20.4187 68.8895 20.4118 69.066 20.4072L69.606 20.4004L69.065 20.4072Z" fill="black"/>
</svg>
