<svg width="48" height="48" viewBox="0 0 48 48" fill="none" xmlns="http://www.w3.org/2000/svg">
<path fill-rule="evenodd" clip-rule="evenodd" d="M27.4218 27.0767L38.5468 18.4002C39.8858 17.3559 42.0568 17.3559 43.3958 18.4002C44.7348 19.4445 44.7348 21.1377 43.3958 22.182L24 37.3089L4.60425 22.182C3.26525 21.1377 3.26525 19.4445 4.60425 18.4002C5.94325 17.3559 8.11419 17.3559 9.45319 18.4002L20.5646 27.0662V2.47392C20.5646 1.10761 22.0997 0 23.9932 0C25.8868 0 27.4218 1.10761 27.4218 2.47392V27.0767ZM3.42857 42.6518H44.5714C46.465 42.6518 48 43.849 48 45.3259C48 46.8028 46.465 48 44.5714 48H3.42857C1.53502 48 0 46.8028 0 45.3259C0 43.849 1.53502 42.6518 3.42857 42.6518Z" fill="white"/>
</svg>
