<svg width="76" height="76" viewBox="0 0 76 76" fill="none" xmlns="http://www.w3.org/2000/svg">
<path d="M5.26425 53C3.16846 48.4337 2 43.3533 2 38C2 18.1177 18.1177 2 38 2C57.8823 2 74 18.1177 74 38C74 57.8823 57.8823 74 38 74C33.0009 74 28.2398 72.981 23.913 71.1395" stroke="white" stroke-width="3" stroke-linecap="round"/>
<path d="M20.7826 48.1739L2 66.9565" stroke="white" stroke-width="3" stroke-linecap="round"/>
<path d="M27.0435 56L16.0869 66.9565" stroke="white" stroke-width="3" stroke-linecap="round"/>
<path fill-rule="evenodd" clip-rule="evenodd" d="M42.1292 60.2469L56.7826 19.2174L14.3995 33.8322C13.4743 34.1513 13.4992 35.5078 14.4292 35.8122C19.1573 37.3596 28.1097 40.6314 31.7391 44.2609C35.3496 47.8714 38.6062 55.9464 40.1634 60.2377C40.4902 61.1381 41.807 61.149 42.1292 60.2469ZM43.4782 38C46.5038 38 48.9565 35.5473 48.9565 32.5217C48.9565 29.4962 46.5038 27.0435 43.4782 27.0435C40.4527 27.0435 38 29.4962 38 32.5217C38 35.5473 40.4527 38 43.4782 38Z" fill="white"/>
</svg>
