<svg width="19" height="20" viewBox="0 0 19 20" fill="none" xmlns="http://www.w3.org/2000/svg">
<path fill-rule="evenodd" clip-rule="evenodd" d="M12.3225 13.2147C12.008 13.162 11.5053 13.047 11.3671 12.6448C11.3468 12.5767 11.3355 12.5062 11.3335 12.4352V11.3194C13.2347 10.3795 14.5573 8.32197 14.5573 5.92946C14.5573 2.65476 12.0848 0 9.036 0C5.98627 0 3.51468 2.65476 3.51468 5.92946C3.51468 8.32197 4.83411 10.3795 6.73575 11.3194V12.4352C6.7341 12.4923 6.72399 12.5488 6.70575 12.6029C6.58395 13.047 6.13035 13.1652 5.8422 13.2147C1.87119 13.8946 0 16.0435 0 20H18.0729C18.0729 16.0435 16.3667 13.8946 12.3225 13.2147" fill="white"/>
</svg>
