<svg width="34" height="33" viewBox="0 0 34 33" fill="none" xmlns="http://www.w3.org/2000/svg">
<path d="M9.47872 3.15957L10.5319 12.9894L1.40426 12.6383L0 14.7447L1.40426 24.5745L11.9362 23.1702L13.3404 33L23.5213 31.2447L24.9255 29.1383L22.117 21.766L31.9468 20.7128L33.3511 18.6064L20.3617 11.5851L10.883 1.05319L9.47872 3.15957Z" fill="#9D6A1E"/>
<path d="M11.9362 10.883L1.4043 12.6383L2.80855 22.4681L13.3405 21.0638L14.7447 30.8936L24.9256 29.1383L23.5213 19.6596L33.3511 18.6064L31.9468 8.42553L21.766 9.47872L20.3617 0L10.883 1.05319L11.9362 10.883Z" fill="#FFE125"/>
<path d="M19.66 7.72341L13.3408 8.42554L15.4472 2.80852L19.66 7.72341Z" stroke="#BF8609"/>
<path d="M16.1494 22.2926L22.1175 27.2075" stroke="#BF8609"/>
<path d="M21.5908 21.766L16.6759 27.734" stroke="#BF8609"/>
<circle cx="27.7338" cy="14.3936" r="2.65957" stroke="#BF8609"/>
<rect x="4.08591" y="14.7871" width="5.31915" height="5.31915" transform="rotate(-9.43031 4.08591 14.7871)" stroke="#BF8609"/>
</svg>
