<svg width="70" height="60" viewBox="0 0 70 60" fill="none" xmlns="http://www.w3.org/2000/svg">
<path d="M15.7139 32.6455H0V19.3457H15.7139V32.6455ZM37.1426 29.6182C33.9941 28.6227 30.4289 28.8651 27.4688 30.3682C26.2387 30.9928 25.1425 31.7638 24.2041 32.6455H21.4287V19.3457H37.1426V29.6182ZM60 29.4199C56.8486 28.6172 53.3828 29.0203 50.5664 30.6094L48.7607 31.6289H44.2861V19.3457H60V29.4199ZM15.7139 13.2998H0V0H15.7139V13.2998ZM37.1426 13.2998H21.4287V0H37.1426V13.2998ZM60 13.2998H44.2861V0H60V13.2998Z" fill="white"/>
<path d="M53.5796 32.6216C56.2595 31.1097 59.7291 31.0394 62.4908 32.4419C65.5204 33.9804 67.5394 36.6184 67.9605 39.5874L69.9507 53.6294C70.4122 56.8857 67.5359 59.7981 63.6675 59.9907C61.1679 60.1151 58.7937 59.0531 57.5054 57.2358L52.9673 50.8345H39.8902L35.3521 57.2358C34.0638 59.0532 31.6888 60.1152 29.189 59.9907C25.3207 59.7981 22.4444 56.8857 22.9058 53.6294L24.8961 39.5874C25.3171 36.6183 27.3371 33.9804 30.3668 32.4419C33.1286 31.0396 36.5981 31.1095 39.2779 32.6216L41.8033 34.0474H51.0533L53.5796 32.6216Z" fill="white"/>
</svg>
