<svg width="24" height="24" viewBox="0 0 24 24" fill="none" xmlns="http://www.w3.org/2000/svg">
<path d="M22.7981 1.19979H19.1988V0H4.80124V1.19979H1.20187C1.04178 1.1901 0.881458 1.21449 0.731498 1.27135C0.581538 1.32822 0.445354 1.41626 0.331948 1.52967C0.218543 1.64307 0.130498 1.77926 0.0736323 1.92922C0.016767 2.07918 -0.00762329 2.2395 0.00207351 2.39959V5.27909C0.00395222 6.61005 0.493236 7.89423 1.37748 8.889C2.26172 9.88378 3.47968 10.5202 4.80124 10.6782V10.7981C4.79282 12.4443 5.34746 14.0438 6.37314 15.3314C7.39883 16.6189 8.8339 17.5171 10.4403 17.8769L9.60041 20.3965H6.84089C6.59482 20.4028 6.35724 20.4878 6.16294 20.6389C5.96863 20.79 5.82781 20.9994 5.76108 21.2363L4.80124 23.9959H19.1988L18.2389 21.2363C18.1722 20.9994 18.0314 20.79 17.8371 20.6389C17.6428 20.4878 17.4052 20.4028 17.1591 20.3965H14.3996L13.5597 17.8769C15.1661 17.5171 16.6012 16.6189 17.6269 15.3314C18.6525 14.0438 19.2072 12.4443 19.1988 10.7981V10.6782C20.5203 10.5202 21.7383 9.88378 22.6225 8.889C23.5068 7.89423 23.996 6.61005 23.9979 5.27909V2.39959C24.0076 2.2395 23.9832 2.07918 23.9264 1.92922C23.8695 1.77926 23.7815 1.64307 23.6681 1.52967C23.5546 1.41626 23.4185 1.32822 23.2685 1.27135C23.1185 1.21449 22.9582 1.1901 22.7981 1.19979V1.19979ZM4.80124 8.27857C4.13088 8.10501 3.53477 7.71896 3.10219 7.17824C2.66961 6.63751 2.42383 5.9712 2.40166 5.27909V3.59938H4.80124V8.27857ZM21.5983 5.27909C21.5946 5.97622 21.3556 6.65167 20.9201 7.19605C20.4846 7.74043 19.8781 8.12186 19.1988 8.27857V3.59938H21.5983V5.27909Z" fill="white"/>
</svg>
